# xmcd
#
# Track frame offsets:
#	150
#	11293
#	23281
#	35690
#	45066
#	55326
#	64653
#	74862
#	86413
#	97670
#	111158
#	122248
#	133436
#	145114
#	155378
#	164834
#	175928
#	188917
#	199085
#	211719
#	223623
#	234280
#	244614
#	254329
#	264224
#	273012
#	282660
#	291576
#	303342
#	314703
#	325647
#	335305
#
# Disc length: 4607 seconds
#
# Revision: 1
# Processed by: cddbd v1.5.2PL0 Copyright (c) Steve Scherf et al.
# Submitted via: EasyCDDAExtractor 10.0.2.1
#
DISCID=d011fd20
DTITLE=Charlie Walker - Pick Me Up On Your Way Down - CD 1
DYEAR=1999
DGENRE=Country
TTITLE0=I'm Looking For Another You
TTITLE1=Stolen Kisses
TTITLE2=Flaming Jewels
TTITLE3=Two Red Lips
TTITLE4=By Rights You Belong To Me
TTITLE5=Out Of My Arms
TTITLE6=Flock Of Memories
TTITLE7=What You Savin' Your Lovin' For
TTITLE8=I've Never Been Out Of Texas (But I've Seen Everything)
TTITLE9=Stay Away From My Heart
TTITLE10=You Don't Need No Other Daddy But Me
TTITLE11=Tell Her Lies And Feed Her Candy
TTITLE12=When You Know What You Have Lost (And You Know You Still Care)
TTITLE13=It Takes That To Satisfy Me
TTITLE14=The Chocolate Song
TTITLE15=Hurry Back Home
TTITLE16=Only You, Only You
TTITLE17=You Can't Get There From Here
TTITLE18=Remembering
TTITLE19=Stepping Stones
TTITLE20=Stand Still
TTITLE21=Cheaters Never Win
TTITLE22=I'm Not Mixed Up Anymore
TTITLE23=Gentle Love
TTITLE24=No Sorrow Tonight
TTITLE25=Dancing Mexican Boy
TTITLE26=I'll Never Let It Show
TTITLE27=Take My Hand (I'll Understand)
TTITLE28=Two Empty Arms
TTITLE29=Pick Me Up On Your Way Down
TTITLE30=Do You Care For Me
TTITLE31=Who's Giving You Heartaches Now
EXTD=
EXTT0=
EXTT1=
EXTT2=
EXTT3=
EXTT4=
EXTT5=
EXTT6=
EXTT7=
EXTT8=
EXTT9=
EXTT10=
EXTT11=
EXTT12=
EXTT13=
EXTT14=
EXTT15=
EXTT16=
EXTT17=
EXTT18=
EXTT19=
EXTT20=
EXTT21=
EXTT22=
EXTT23=
EXTT24=
EXTT25=
EXTT26=
EXTT27=
EXTT28=
EXTT29=
EXTT30=
EXTT31=
PLAYORDER=
